HIERARCHY
ROOT Hips
{
 OFFSET 0.000000 0.000000 0.000000
 CHANNELS 6 Xposition Yposition Zposition Yrotation Xrotation Zrotation
 JOINT Chest
 {
  OFFSET 0.000000 9.585900 0.002600
  CHANNELS 3 Yrotation Xrotation Zrotation
  JOINT Chest2
  {
   OFFSET 0.000000 9.601200 -0.005300
   CHANNELS 3 Yrotation Xrotation Zrotation
   JOINT Chest3
   {
    OFFSET 0.000000 9.561800 0.000000
    CHANNELS 3 Yrotation Xrotation Zrotation
    JOINT Chest4
    {
     OFFSET 0.000000 9.552100 0.000000
     CHANNELS 3 Yrotation Xrotation Zrotation
     JOINT Neck
     {
      OFFSET 0.000000 14.453000 0.000000
      CHANNELS 3 Yrotation Xrotation Zrotation
      JOINT Head
      {
       OFFSET 0.000000 8.936500 -0.011300
       CHANNELS 3 Yrotation Xrotation Zrotation
       End Site
       {
        OFFSET 0.000000 17.073600 -0.006000
       }
      }
     }
     JOINT RightCollar
     {
      OFFSET -2.921100 9.558500 0.000000
      CHANNELS 3 Yrotation Xrotation Zrotation
      JOINT RightShoulder
      {
       OFFSET -13.519700 0.000000 0.000000
       CHANNELS 3 Yrotation Xrotation Zrotation
       JOINT RightElbow
       {
        OFFSET 0.000000 -29.696600 0.000000
        CHANNELS 3 Yrotation Xrotation Zrotation
        JOINT RightWrist
        {
         OFFSET 0.000000 -24.004700 0.000000
         CHANNELS 3 Yrotation Xrotation Zrotation
         End Site
         {
          OFFSET 0.000000 -17.728500 0.000000
         }
        }
       }
      }
     }
     JOINT LeftCollar
     {
      OFFSET 2.921100 9.558500 0.000000
      CHANNELS 3 Yrotation Xrotation Zrotation
      JOINT LeftShoulder
      {
       OFFSET 13.519700 0.000000 0.000000
       CHANNELS 3 Yrotation Xrotation Zrotation
       JOINT LeftElbow
       {
        OFFSET 0.000000 -29.696600 0.000000
        CHANNELS 3 Yrotation Xrotation Zrotation
        JOINT LeftWrist
        {
         OFFSET 0.000000 -24.004700 0.000000
         CHANNELS 3 Yrotation Xrotation Zrotation
         End Site
         {
          OFFSET 0.000000 -17.728500 0.000000
         }
        }
       }
      }
     }
    }
   }
  }
 }
 JOINT RightHip
 {
  OFFSET -7.771700 -0.012900 -0.001300
  CHANNELS 3 Yrotation Xrotation Zrotation
  JOINT RightKnee
  {
   OFFSET 0.000000 -40.869800 0.001200
   CHANNELS 3 Yrotation Xrotation Zrotation
   JOINT RightAnkle
   {
    OFFSET 0.000000 -39.717900 0.002100
    CHANNELS 3 Yrotation Xrotation Zrotation
    JOINT RightToe
    {
     OFFSET 0.000000 -4.965400 11.033500
     CHANNELS 3 Yrotation Xrotation Zrotation
     End Site
     {
      OFFSET 0.000000 -1.423100 5.872300
     }
    }
   }
  }
 }
 JOINT LeftHip
 {
  OFFSET 7.771700 -0.012900 -0.001300
  CHANNELS 3 Yrotation Xrotation Zrotation
  JOINT LeftKnee
  {
   OFFSET 0.000000 -40.869800 0.001200
   CHANNELS 3 Yrotation Xrotation Zrotation
   JOINT LeftAnkle
   {
    OFFSET 0.000000 -39.717900 0.002100
    CHANNELS 3 Yrotation Xrotation Zrotation
    JOINT LeftToe
    {
     OFFSET 0.000000 -4.965400 11.033500
     CHANNELS 3 Yrotation Xrotation Zrotation
     End Site
     {
      OFFSET 0.000000 -1.423100 5.872300
     }
    }
   }
  }
 }
}
MOTION
Frames: 8
Frame Time: 0.008333
-217.896832 57.368494 134.476736 173.057188 -29.363665 -0.942902 4.198966 20.443736 3.323509 0.303157 2.586390 0.316824 0.504155 4.234007 0.526276 2.381325 17.350030 2.463491 -0.761484 15.160449 -0.799412 -1.080047 -7.697771 -1.256727 3.247695 -3.117175 -1.350141 10.028854 -15.962645 -17.841247 147.642977 -72.167293 -115.161876 14.224787 -14.130838 -42.235294 -6.149491 -5.252215 -2.375144 0.425966 -9.042768 -0.229236 35.482721 -69.898675 -69.289691 -7.845141 4.764154 2.782659 5.082311 -47.023118 0.340824 -12.251904 68.662996 -17.357282 6.500368 22.601084 5.333929 -1.138530 -15.951947 4.515623 -6.741385 -44.079559 4.959841 33.156158 69.787619 36.173073 -14.545196 1.939639 -6.919695 0.444041 0.852472 0.207489
-217.904558 57.364387 134.481677 173.063009 -29.366801 -0.945944 4.192088 20.447097 3.318887 0.304088 2.586759 0.316826 0.505979 4.235114 0.526448 2.385184 17.349366 2.464999 -0.749046 15.140287 -0.808575 -1.067052 -7.721463 -1.260322 3.247965 -3.119234 -1.348138 10.046122 -15.964953 -17.851922 147.603189 -72.144119 -115.120984 14.197678 -14.120575 -42.251884 -6.150277 -5.257345 -2.374161 0.420321 -9.041513 -0.221825 35.515467 -69.912225 -69.316568 -7.832356 4.776587 2.779702 5.031186 -47.034201 0.337000 -12.294629 68.649130 -17.399759 6.543753 22.635282 5.332880 -1.140204 -15.964485 4.503318 -6.752275 -44.073200 4.965343 33.154015 69.789091 36.168889 -14.549198 1.945068 -6.922999 0.445915 0.844693 0.207118
-217.916757 57.360060 134.487027 173.148365 -29.353834 -0.955610 4.104130 20.439121 3.281816 0.304528 2.585577 0.316783 0.508124 4.237758 0.527043 2.387529 17.347263 2.463930 -0.718822 15.106424 -0.822694 -1.092048 -7.701628 -1.241444 3.249815 -3.120206 -1.346795 10.058610 -15.966439 -17.860735 147.565883 -72.132160 -115.088456 14.193971 -14.135198 -42.249141 -6.148341 -5.252684 -2.377755 0.410933 -9.052829 -0.217689 35.510458 -69.912448 -69.304976 -7.829404 4.777969 2.779994 4.947353 -47.054999 0.288147 -12.323274 68.638780 -17.433071 6.523138 22.646385 5.281983 -1.110282 -15.952386 4.525552 -6.804268 -44.086049 4.928569 33.156929 69.789991 36.166549 -14.529223 1.985853 -6.911038 0.420994 0.805426 0.194740
-217.921697 57.357888 134.490291 173.170166 -29.354238 -0.968437 4.087829 20.442766 3.285123 0.302815 2.583790 0.316514 0.509442 4.238250 0.527343 2.393767 17.349475 2.466452 -0.707916 15.089713 -0.830455 -1.071222 -7.741638 -1.257743 3.252994 -3.121268 -1.349260 10.054584 -15.969645 -17.864056 147.529445 -72.113108 -115.046222 14.185563 -14.138575 -42.249297 -6.148454 -5.251532 -2.382506 0.406878 -9.066389 -0.218172 35.492900 -69.912517 -69.284779 -7.832519 4.769732 2.791682 4.903504 -47.061010 0.288319 -12.376390 68.626244 -17.482319 6.539258 22.655530 5.257727 -1.090305 -15.948286 4.532893 -6.831621 -44.082885 4.933869 33.160840 69.790028 36.170936 -14.521919 1.996405 -6.912345 0.411613 0.794045 0.190896
-217.928011 57.356327 134.492833 173.199064 -29.350698 -0.967688 4.060217 20.443340 3.270406 0.302152 2.585253 0.317158 0.508808 4.236455 0.526987 2.399947 17.352934 2.467555 -0.696733 15.073684 -0.837945 -1.007703 -7.819189 -1.299451 3.258973 -3.127249 -1.350064 10.063617 -15.973808 -17.878644 147.491568 -72.108983 -115.018013 14.175341 -14.138432 -42.252632 -6.152054 -5.254673 -2.383638 0.413167 -9.074867 -0.225656 35.475038 -69.921069 -69.269514 -7.830735 4.755113 2.826152 4.839937 -47.073676 0.276361 -12.359092 68.626977 -17.477156 6.545316 22.672339 5.249596 -1.075952 -15.954880 4.520614 -6.848555 -44.085523 4.914621 33.159554 69.787940 36.166805 -14.507227 2.016719 -6.908199 0.393035 0.776917 0.185587
-217.933268 57.355742 134.494344 173.227994 -29.348424 -0.963335 4.029440 20.443651 3.251049 0.306528 2.588807 0.317353 0.509752 4.237454 0.527239 2.403708 17.354415 2.468746 -0.692512 15.060042 -0.843344 -0.980836 -7.850893 -1.317410 3.263560 -3.135867 -1.349540 10.073646 -15.979146 -17.889508 147.454068 -72.116246 -114.996442 14.177473 -14.138859 -42.250276 -6.158990 -5.259735 -2.382863 0.414257 -9.078652 -0.227395 35.483062 -69.924339 -69.271774 -7.831503 4.754303 2.826158 4.786013 -47.082836 0.262929 -12.324694 68.630452 -17.457075 6.523797 22.686722 5.242019 -1.068386 -15.958375 4.510074 -6.862445 -44.086472 4.891712 33.157303 69.785731 36.159415 -14.496339 2.039190 -6.896515 0.380425 0.757112 0.174197
-217.936301 57.355811 134.495457 173.261483 -29.345143 -0.964780 3.993730 20.444275 3.229879 0.310588 2.589665 0.316148 0.508848 4.239843 0.528732 2.411070 17.357480 2.469501 -0.693430 15.049021 -0.839646 -0.944914 -7.882174 -1.344607 3.266537 -3.146774 -1.345242 10.114068 -15.985341 -17.925951 147.416211 -72.117169 -114.986890 14.169324 -14.136602 -42.258462 -6.164128 -5.261322 -2.379668 0.421843 -9.094294 -0.243843 35.443274 -69.928778 -69.236730 -7.835815 4.748633 2.831806 4.755889 -47.089347 0.244577 -12.304377 68.631381 -17.443817 6.493245 22.696973 5.242856 -1.025490 -15.961711 4.491430 -6.883855 -44.087449 4.873281 33.165967 69.778308 36.165094 -14.484126 2.063168 -6.892064 0.362670 0.736866 0.167317
-217.934722 57.355653 134.498055 173.300752 -29.331257 -0.988626 3.968684 20.427509 3.235470 0.308379 2.592174 0.316215 0.508964 4.241445 0.527329 2.417192 17.360612 2.465522 -0.683569 15.035817 -0.844061 -0.922722 -7.901754 -1.357007 3.267667 -3.160446 -1.336660 10.119784 -15.983686 -17.938188 147.379602 -72.090058 -114.935131 14.145598 -14.131945 -42.281068 -6.156110 -5.255983 -2.381902 0.402647 -9.104153 -0.235813 35.463429 -69.929845 -69.241531 -7.831831 4.735181 2.837455 4.702121 -47.107625 0.247192 -12.290996 68.625671 -17.421450 6.484762 22.725711 5.234547 -0.999431 -15.978327 4.476425 -6.929525 -44.096962 4.882544 33.166085 69.767793 36.171596 -14.477453 2.086192 -6.897197 0.352916 0.719042 0.161285
